<?xml version="1.0" encoding="utf-8"?>
<!-- Generator: Adobe Adobe Illustrator 24.2.0, SVG Export Plug-In . SVG Version: 6.00 Build 0)  -->
<svg version="1.1" id="Layer_1" xmlns="http://www.w3.org/2000/svg" xmlns:xlink="http://www.w3.org/1999/xlink" x="0px" y="0px"
	 width="39.5px" height="22px" viewBox="0 0 39.5 22" style="enable-background:new 0 0 39.5 22;" xml:space="preserve">
<style type="text/css">
	.st0{fill:none;stroke:#4A4A4A;}
	.st1{fill:#4A4A4A;}
</style>
<path class="st0" d="M38.5,11c0,5.5-4.4,10-9.9,10c-5.5,0-9.9-4.5-9.9-10s4.4-10,9.9-10C34.1,1,38.5,5.5,38.5,11z"/>
<path class="st1" d="M32.4,11.4c0.2-0.2,0.2-0.5,0-0.7l-3.5-3.3c-0.2-0.2-0.6-0.2-0.8,0c-0.2,0.2-0.2,0.5,0,0.7l3.1,2.9L28.1,14
	c-0.2,0.2-0.2,0.5,0,0.7c0.2,0.2,0.6,0.2,0.8,0L32.4,11.4z M1,11.6h31.1v-1H1V11.6z"/>
</svg>
